<?xml version="1.0" encoding="utf-8"?>
<!-- Generator: Adobe Illustrator 18.1.1, SVG Export Plug-In . SVG Version: 6.00 Build 0)  -->
<!DOCTYPE svg PUBLIC "-//W3C//DTD SVG 1.1//EN" "http://www.w3.org/Graphics/SVG/1.1/DTD/svg11.dtd">
<svg version="1.1" id="Layer_1" xmlns="http://www.w3.org/2000/svg" xmlns:xlink="http://www.w3.org/1999/xlink" x="0px" y="0px"
	 width="24px" height="24px" viewBox="0 0 24 24" enable-background="new 0 0 24 24" xml:space="preserve">
<path fill="#FFFFFF" d="M-297.5-177v414.5h629V-177H-297.5z M305,197.2c0,7.2-5.8,13-13,13h-563l0-360h576V197.2z"/>
<g>
	<circle cx="4.5" cy="15.4" r="0.4"/>
	<path d="M21.7,19.5c-0.1-0.4-0.3-0.8-0.4-1.2c0.3-0.5,0.4-1,0.4-1.5v-2.7c0-1.4-1.2-2.6-2.6-2.6h-4.3c-0.5,0-0.9-0.2-1.2-0.6
		l0.3-0.3c0.1-0.1,0.2-0.2,0.2-0.3s0-0.3-0.1-0.4c-0.9-1-0.3-2.6,0.2-3.9c0.2-0.7,0.5-1.2,0.5-1.7c0-1.5-2.1-2.9-3-3.4
		c-0.2-0.1-0.4-0.1-0.6,0L9.4,2.3c0,0,0,0-0.1,0c-0.5,0-0.8,0.4-0.8,0.8C8.4,3.6,8.8,4,9.3,4s0.8-0.4,0.8-0.8c0-0.1,0-0.1,0-0.2
		l1.3-1c1.1,0.7,2.3,1.7,2.3,2.4c0,0.3-0.2,0.8-0.4,1.4c-0.5,1.3-1.1,3.1-0.3,4.5l-0.7,0.6C11,9.7,9.2,10,7.8,10.3
		c-0.6,0.1-1.1,0.2-1.4,0.1C5.7,10.3,5,9,4.5,7.7l1.3-1.1c0.1,0,0.1,0,0.2,0c0.5,0,0.8-0.4,0.8-0.8S6.5,4.9,6,4.9S5.2,5.3,5.2,5.7
		c0,0,0,0,0,0.1L3.6,7.2C3.4,7.3,3.4,7.5,3.4,7.7c0.3,1,1.3,3.4,2.8,3.7c0.5,0.1,1.1,0,1.7-0.1c1.4-0.2,3-0.5,3.8,0.6
		c0.1,0.1,0.2,0.2,0.3,0.2c0,0,0,0,0.1,0c0.1,0,0.2,0,0.3-0.1l0.4-0.3c0.5,0.6,1.2,0.9,2,0.9h4.3c0.9,0,1.6,0.7,1.6,1.6v2.7
		c0,0.1,0,0.1,0,0.2c-1.1-2.1-2.6-2.9-3.6-2.9c0,0,0,0,0,0c-1.9,0-3.5,1.6-3.5,3.5c0,1,0.4,1.9,1.1,2.6c0.7,0.6,1.5,0.9,2.4,0.9
		c1.3-0.1,2.6-0.8,3.5-1.7c0,0.1,0.1,0.3,0.1,0.4l0.1,0.3c0,1.4-1.3,2-2.6,2H7.4c-1.4,0-2.6-1.2-2.6-2.6v-1.8c0,0,0-0.1,0-0.1
		c1-0.2,1.8-1.1,1.8-2.2c0-1.2-1-2.2-2.2-2.2c-1.2,0-2.2,1-2.2,2.2c0,0.6,0.2,1.1,0.6,1.5c0.3,0.3,0.6,0.4,0.9,0.5
		c0,0.1,0,0.1,0,0.2v1.8c0,2,1.6,3.6,3.6,3.6h10.8c2.1,0,3.6-1.3,3.6-3.1L21.7,19.5z M17,20c-0.6,0-1.2-0.2-1.6-0.6
		c-0.5-0.5-0.8-1.2-0.8-1.9c0-1.4,1.1-2.5,2.5-2.5c0,0,0,0,0,0c0.9,0,2.2,1,3.1,3.1C19.5,19.1,18.3,19.9,17,20z M4.5,14.2
		c0.7,0,1.2,0.5,1.2,1.2c0,0.7-0.5,1.2-1.2,1.2h0c-0.3,0-0.6-0.1-0.8-0.3c-0.2-0.2-0.3-0.5-0.3-0.8C3.3,14.8,3.8,14.2,4.5,14.2z"/>
</g>
</svg>
