<?xml version="1.0" encoding="utf-8"?>
<!-- Generator: Adobe Illustrator 18.1.0, SVG Export Plug-In . SVG Version: 6.00 Build 0)  -->
<!DOCTYPE svg PUBLIC "-//W3C//DTD SVG 1.1//EN" "http://www.w3.org/Graphics/SVG/1.1/DTD/svg11.dtd">
<svg version="1.1" id="Layer_1" xmlns="http://www.w3.org/2000/svg" xmlns:xlink="http://www.w3.org/1999/xlink" x="0px" y="0px"
	 width="24px" height="24px" viewBox="0 0 24 24" enable-background="new 0 0 24 24" xml:space="preserve">
<path fill="#FFFFFF" d="M-297.5-177v414.5h629V-177H-297.5z M305,197.2c0,7.2-5.8,13-13,13h-563l0-360h576V197.2z"/>
<g>
	<g>
		<path fill="#282829" d="M12.2,12.1C12.2,12.1,12.1,12.1,12.2,12.1c-0.2,0-0.3-0.1-0.4-0.2C11,10.8,9.3,11,7.9,11.2
			c-0.7,0.1-1.3,0.2-1.7,0.1c-1.5-0.3-2.4-2.7-2.8-3.7c-0.1-0.2,0-0.4,0.1-0.5l1.8-1.5c0.2-0.2,0.5-0.2,0.7,0.1
			C6.2,5.9,6.2,6.2,6,6.4L4.5,7.7C5,9,5.7,10.3,6.4,10.4c0.3,0.1,0.8,0,1.4-0.1c1.4-0.2,3.2-0.5,4.4,0.6l0.7-0.6
			c-0.9-1.4-0.2-3.2,0.3-4.5c0.2-0.5,0.4-1.1,0.4-1.4c0-0.7-1.1-1.7-2.3-2.4L9.8,3.2C9.6,3.4,9.3,3.4,9.1,3.1C8.9,2.9,9,2.6,9.2,2.4
			L11,1c0.2-0.1,0.4-0.1,0.6,0c0.9,0.5,3.1,1.9,3,3.4c0,0.5-0.2,1-0.5,1.7C13.7,7.4,13.1,9,14,10c0.1,0.1,0.1,0.2,0.1,0.4
			s-0.1,0.3-0.2,0.3l-1.5,1.3C12.4,12,12.3,12.1,12.2,12.1z"/>
	</g>
	<g>
		<circle fill="#FFFFFF" cx="4.5" cy="15.4" r="1.7"/>
		<path fill="#282829" d="M4.5,17.6c-0.6,0-1.1-0.2-1.5-0.6s-0.6-1-0.6-1.5c0-1.2,1-2.2,2.2-2.2c1.2,0,2.2,1,2.2,2.2
			C6.6,16.6,5.7,17.6,4.5,17.6z M4.5,14.2c-0.7,0-1.2,0.5-1.2,1.2c0,0.3,0.1,0.6,0.3,0.8c0.2,0.2,0.5,0.3,0.8,0.3h0
			c0.7,0,1.2-0.5,1.2-1.2C5.6,14.8,5.1,14.2,4.5,14.2z"/>
	</g>
	<g>
		<circle fill="#282829" cx="4.5" cy="15.4" r="0.4"/>
	</g>
	<g>
		<path fill="#282829" d="M18.2,23.1H7.4c-2,0-3.6-1.6-3.6-3.6v-1.8c0-0.3,0.2-0.5,0.5-0.5s0.5,0.2,0.5,0.5v1.8
			c0,1.4,1.2,2.6,2.6,2.6h10.8c1.2,0,2.6-0.6,2.6-2l-0.1-0.3c0-0.1-0.1-0.3-0.1-0.4c-0.9,0.9-2.2,1.6-3.5,1.7
			c-0.9,0.1-1.7-0.3-2.4-0.9c-0.7-0.7-1.1-1.6-1.1-2.6c0-1.9,1.6-3.5,3.5-3.5c0,0,0,0,0,0c1.1,0,2.5,0.8,3.6,2.9c0-0.1,0-0.1,0-0.2
			v-2.7c0-0.9-0.7-1.6-1.6-1.6h-4.3c-0.9,0-1.7-0.5-2.2-1.2c-0.1-0.2-0.1-0.5,0.2-0.7c0.2-0.1,0.5-0.1,0.7,0.2
			c0.3,0.5,0.8,0.8,1.3,0.8h4.3c1.4,0,2.6,1.2,2.6,2.6v2.7c0,0.5-0.2,1-0.4,1.5c0.1,0.4,0.3,0.8,0.4,1.2l0.1,0.5
			C21.7,21.8,20.2,23.1,18.2,23.1z M17.1,15.1C17.1,15.1,17.1,15.1,17.1,15.1c-1.4,0-2.5,1.1-2.5,2.5c0,0.7,0.3,1.4,0.8,1.9
			c0.5,0.4,1,0.6,1.6,0.6c1.3-0.1,2.5-0.9,3.1-1.8C19.2,16.1,18,15.1,17.1,15.1z"/>
	</g>
	<g>
		<circle fill="#282829" cx="6" cy="5.7" r="0.8"/>
	</g>
	<g>
		<circle fill="#282829" cx="9.3" cy="3.2" r="0.8"/>
	</g>
</g>
</svg>
