<?xml version="1.0" encoding="utf-8"?>
<!-- Generator: Adobe Illustrator 18.1.1, SVG Export Plug-In . SVG Version: 6.00 Build 0)  -->
<!DOCTYPE svg PUBLIC "-//W3C//DTD SVG 1.1//EN" "http://www.w3.org/Graphics/SVG/1.1/DTD/svg11.dtd">
<svg version="1.1" id="Layer_1" xmlns="http://www.w3.org/2000/svg" xmlns:xlink="http://www.w3.org/1999/xlink" x="0px" y="0px"
	 width="24px" height="24px" viewBox="0 0 24 24" enable-background="new 0 0 24 24" xml:space="preserve">
<path fill="#FFFFFF" d="M-263.6-177v414.5h629V-177H-263.6z M338.9,197.2c0,7.2-5.8,13-13,13h-563l0-360h576V197.2z"/>
<g>
	<path fill="none" d="M6.1,14.7c1,0,1.9,0.7,2.1,1.7l5,0c0.2-1,1.1-1.7,2.1-1.7c0.6,0,1.1,0.2,1.5,0.6c0.3,0.3,0.5,0.7,0.6,1.1l4,0
		v-2.3h-2.6c-0.9,0-1.6-0.7-1.6-1.6l0-1h-3.8c-0.3,0-0.5-0.2-0.5-0.5s0.2-0.5,0.5-0.5h3.8l0-4.4L2.7,6.1l0,4.4h3.8
		C6.7,10.5,7,10.7,7,11s-0.2,0.5-0.5,0.5H2.6l0,4.9l1.4,0C4.2,15.4,5.1,14.7,6.1,14.7z M8.3,10.5h1.1V9.4c0-0.3,0.2-0.5,0.5-0.5
		s0.5,0.2,0.5,0.5v1.1h1.1c0.3,0,0.5,0.2,0.5,0.5s-0.2,0.5-0.5,0.5h-1.1v1.1c0,0.3-0.2,0.5-0.5,0.5s-0.5-0.2-0.5-0.5v-1.1H8.3
		c-0.3,0-0.5-0.2-0.5-0.5S8,10.5,8.3,10.5z"/>
	<polygon fill="none" points="15.3,18.4 15.3,18.4 15.3,18.4 	"/>
	<path fill="none" d="M20.2,8.7h-2.1l0,3.8c0,0.3,0.3,0.6,0.6,0.6h2.6V9.8C21.4,9.2,20.9,8.7,20.2,8.7z"/>
	<g>
		<path fill="#0D0D0D" d="M11.5,10.5h-1.1V9.4c0-0.3-0.2-0.5-0.5-0.5S9.4,9.1,9.4,9.4v1.1H8.3c-0.3,0-0.5,0.2-0.5,0.5
			s0.2,0.5,0.5,0.5h1.1v1.1c0,0.3,0.2,0.5,0.5,0.5s0.5-0.2,0.5-0.5v-1.1h1.1c0.3,0,0.5-0.2,0.5-0.5S11.8,10.5,11.5,10.5z"/>
		<path fill="#0D0D0D" d="M20.2,7.7h-2.1l0-1.5c0-0.6-0.5-1.1-1.1-1.1l-14.4,0c-0.6,0-1.1,0.5-1.1,1.1l0,10.2c0,0.6,0.5,1.1,1.1,1.1
			l1.4,0c0.3,0.9,1.1,1.5,2,1.5h0c1,0,1.8-0.6,2-1.5l5.1,0c0.3,0.9,1.1,1.5,2,1.5h0c1,0,1.8-0.7,2-1.5l4.6,0c0,0,0,0,0,0
			c0.1,0,0.3-0.1,0.4-0.1c0.1-0.1,0.1-0.2,0.1-0.4V9.8C22.4,8.6,21.4,7.7,20.2,7.7z M6.1,17.9c-0.4,0-0.7-0.2-0.9-0.5
			C5,17.2,5,17,5,16.8c0-0.2,0-0.3,0.1-0.4c0.2-0.4,0.6-0.7,1-0.7c0.5,0,0.9,0.3,1,0.7c0.1,0.1,0.1,0.3,0.1,0.4
			c0,0.2-0.1,0.4-0.2,0.6C6.8,17.7,6.5,17.9,6.1,17.9 M15.3,17.9c-0.4,0-0.7-0.2-0.9-0.5c-0.1-0.2-0.2-0.4-0.2-0.6
			c0-0.1,0-0.3,0.1-0.4c0.2-0.4,0.6-0.7,1.1-0.7c0.3,0,0.6,0.1,0.8,0.3c0.1,0.1,0.2,0.3,0.3,0.4c0,0.1,0.1,0.3,0.1,0.4
			c0,0.2-0.1,0.4-0.2,0.6C16,17.7,15.7,17.9,15.3,17.9 M21.4,16.4l-4,0c-0.1-0.4-0.3-0.8-0.6-1.1c-0.4-0.4-0.9-0.6-1.5-0.6
			c-1,0-1.9,0.7-2.1,1.7l-5,0c-0.2-1-1.1-1.7-2.1-1.7c-1,0-1.9,0.7-2.1,1.7l-1.4,0l0-4.9h3.8C6.7,11.5,7,11.3,7,11s-0.2-0.5-0.5-0.5
			H2.7l0-4.4l14.5,0.1l0,4.4h-3.8c-0.3,0-0.5,0.2-0.5,0.5s0.2,0.5,0.5,0.5h3.8l0,1c0,0.9,0.7,1.6,1.6,1.6h2.6V16.4z M21.4,13.1h-2.6
			c-0.3,0-0.6-0.3-0.6-0.6l0-3.8h2.1c0.6,0,1.2,0.5,1.2,1.2V13.1z"/>
		<path fill="#0D0D0D" d="M18.7,7.5h1.4h0.1h0.7c0.1,0,0.2-0.1,0.2-0.2S21,7,20.9,7h-0.4l0.3-0.3c0.1-0.1,0.1-0.3,0-0.4
			s-0.3-0.1-0.4,0L20,6.6V6.1c0-0.1-0.1-0.2-0.2-0.2S19.5,6,19.5,6.1v0.5l-0.4-0.4c-0.1-0.1-0.3-0.1-0.4,0s-0.1,0.3,0,0.4L19.2,7
			h-0.5c-0.1,0-0.2,0.1-0.2,0.2S18.6,7.5,18.7,7.5z"/>
	</g>
</g>
</svg>
