<?xml version="1.0" encoding="utf-8"?>
<!-- Generator: Adobe Illustrator 18.1.0, SVG Export Plug-In . SVG Version: 6.00 Build 0)  -->
<!DOCTYPE svg PUBLIC "-//W3C//DTD SVG 1.1//EN" "http://www.w3.org/Graphics/SVG/1.1/DTD/svg11.dtd">
<svg version="1.1" id="Layer_1" xmlns="http://www.w3.org/2000/svg" xmlns:xlink="http://www.w3.org/1999/xlink" x="0px" y="0px"
	 width="24px" height="24px" viewBox="0 0 24 24" enable-background="new 0 0 24 24" xml:space="preserve">
<path fill="#FFFFFF" d="M-263.6-177v414.5h629V-177H-263.6z M338.9,197.2c0,7.2-5.8,13-13,13h-563l0-360h576V197.2z"/>
<g>
	<g>
		<g>
			<g>
				<path fill="#282829" d="M9.9,13.1c-0.3,0-0.5-0.2-0.5-0.5V9.4c0-0.3,0.2-0.5,0.5-0.5s0.5,0.2,0.5,0.5v3.2
					C10.4,12.9,10.2,13.1,9.9,13.1z"/>
			</g>
			<g>
				<path fill="#282829" d="M11.5,11.5H8.3c-0.3,0-0.5-0.2-0.5-0.5s0.2-0.5,0.5-0.5h3.2c0.3,0,0.5,0.2,0.5,0.5S11.8,11.5,11.5,11.5z
					"/>
			</g>
		</g>
		<g>
			<path fill="#282829" d="M6.5,11.5H2.2c-0.3,0-0.5-0.2-0.5-0.5s0.2-0.5,0.5-0.5h4.2C6.7,10.5,7,10.7,7,11S6.7,11.5,6.5,11.5z"/>
		</g>
		<g>
			<path fill="#282829" d="M21.9,17.4C21.9,17.4,21.9,17.4,21.9,17.4l-5.2,0l-0.7,0l-13.3,0c-0.6,0-1.1-0.5-1.1-1.1l0-10.2
				c0-0.6,0.5-1.1,1.1-1.1l14.4,0c0.6,0,1.1,0.5,1.1,1.1l0,1.5h2.1c1.2,0,2.2,1,2.2,2.2v7.1c0,0.1-0.1,0.3-0.1,0.4
				C22.1,17.4,22,17.4,21.9,17.4z M16.6,16.4l4.7,0v-2.3h-2.6c-0.9,0-1.6-0.7-1.6-1.6l0-6.3L2.7,6.1L2.6,16.4L16,16.4L16.6,16.4z
				 M18.1,8.7l0,3.8c0,0.3,0.3,0.6,0.6,0.6h2.6V9.8c0-0.6-0.5-1.2-1.2-1.2H18.1z"/>
		</g>
		<g>
			<circle fill="#FFFFFF" cx="6.1" cy="16.8" r="1.6"/>
			<path fill="#282829" d="M6.1,18.9L6.1,18.9c-1.2,0-2.1-1-2.1-2.1c0-1.2,1-2.1,2.1-2.1c1.2,0,2.1,1,2.1,2.1
				C8.2,18,7.3,18.9,6.1,18.9z M6.1,15.7c-0.6,0-1.1,0.5-1.1,1.1c0,0.6,0.5,1.1,1.1,1.1l0,0.5l0-0.5c0.6,0,1.1-0.5,1.1-1.1
				C7.2,16.2,6.7,15.7,6.1,15.7z"/>
		</g>
		<g>
			<circle fill="#FFFFFF" cx="15.3" cy="16.8" r="1.6"/>
			<path fill="#282829" d="M15.3,18.9L15.3,18.9c-1.2,0-2.1-1-2.1-2.1c0-1.2,1-2.1,2.1-2.1c0.6,0,1.1,0.2,1.5,0.6
				c0.4,0.4,0.6,0.9,0.6,1.5C17.4,18,16.4,18.9,15.3,18.9z M15.3,15.7c-0.6,0-1.1,0.5-1.1,1.1c0,0.6,0.5,1.1,1.1,1.1l0,0.5l0-0.5
				c0.6,0,1.1-0.5,1.1-1.1c0-0.3-0.1-0.6-0.3-0.8C15.9,15.8,15.6,15.7,15.3,15.7z"/>
		</g>
		<g>
			<path fill="#282829" d="M17.6,11.5h-4.2c-0.3,0-0.5-0.2-0.5-0.5s0.2-0.5,0.5-0.5h4.2c0.3,0,0.5,0.2,0.5,0.5S17.8,11.5,17.6,11.5z
				"/>
		</g>
	</g>
	<g>
		<path fill="#282829" d="M19.8,7.1c-0.1,0-0.2-0.1-0.2-0.2V6.1c0-0.1,0.1-0.2,0.2-0.2S20,6,20,6.1v0.8C20,7,19.9,7.1,19.8,7.1z"/>
	</g>
	<g>
		<path fill="#282829" d="M19.5,7.2c-0.1,0-0.1,0-0.2-0.1l-0.5-0.5c-0.1-0.1-0.1-0.3,0-0.4s0.3-0.1,0.4,0l0.5,0.5
			c0.1,0.1,0.1,0.3,0,0.4C19.6,7.2,19.6,7.2,19.5,7.2z"/>
	</g>
	<g>
		<path fill="#282829" d="M20.9,7.5h-0.8c-0.1,0-0.2-0.1-0.2-0.2S20,7,20.1,7h0.8c0.1,0,0.2,0.1,0.2,0.2S21,7.5,20.9,7.5z"/>
	</g>
	<g>
		<path fill="#282829" d="M20.2,7.5h-1.5c-0.1,0-0.2-0.1-0.2-0.2S18.6,7,18.7,7h1.5c0.1,0,0.2,0.1,0.2,0.2S20.3,7.5,20.2,7.5z"/>
	</g>
	<g>
		<path fill="#282829" d="M20,7.3c-0.1,0-0.1,0-0.2-0.1c-0.1-0.1-0.1-0.3,0-0.4l0.5-0.5c0.1-0.1,0.3-0.1,0.4,0s0.1,0.3,0,0.4
			l-0.5,0.5C20.1,7.2,20.1,7.3,20,7.3z"/>
	</g>
</g>
</svg>
