<?xml version="1.0" encoding="utf-8"?>
<!-- Generator: Adobe Illustrator 18.1.0, SVG Export Plug-In . SVG Version: 6.00 Build 0)  -->
<!DOCTYPE svg PUBLIC "-//W3C//DTD SVG 1.1//EN" "http://www.w3.org/Graphics/SVG/1.1/DTD/svg11.dtd">
<svg version="1.1" id="Layer_1" xmlns="http://www.w3.org/2000/svg" xmlns:xlink="http://www.w3.org/1999/xlink" x="0px" y="0px"
	 width="24px" height="24px" viewBox="0 0 24 24" enable-background="new 0 0 24 24" xml:space="preserve">
<g>
	<path fill="#282829" d="M9.5,22.8c-4.4,0-7.9-3.6-7.9-7.9s3.6-7.9,7.9-7.9s7.9,3.6,7.9,7.9S13.9,22.8,9.5,22.8z M9.5,7.9
		c-3.8,0-6.9,3.1-6.9,6.9s3.1,6.9,6.9,6.9s6.9-3.1,6.9-6.9S13.4,7.9,9.5,7.9z"/>
</g>
<g>
	<path fill="#282829" d="M5.6,8.6C5.6,8.6,5.6,8.6,5.6,8.6c-0.3,0-0.5-0.2-0.5-0.5l0-6H4C3.7,2.2,3.5,2,3.5,1.7S3.7,1.2,4,1.2h1.6
		c0.1,0,0.3,0.1,0.4,0.1s0.1,0.2,0.1,0.4l0,6.5C6.1,8.4,5.8,8.6,5.6,8.6z"/>
</g>
<g>
	<path fill="#282829" d="M14.6,9.7c-0.3,0-0.5-0.2-0.5-0.5V5.8H5.6c-0.3,0-0.5-0.2-0.5-0.5s0.2-0.5,0.5-0.5h9c0.3,0,0.5,0.2,0.5,0.5
		v3.9C15.1,9.5,14.9,9.7,14.6,9.7z"/>
</g>
<g>
	<path fill="#282829" d="M21.8,21.5h-2c-0.3,0-0.5-0.2-0.5-0.5v-7.7H17c-0.3,0-0.5-0.2-0.5-0.5s0.2-0.5,0.5-0.5h2.9
		c0.3,0,0.5,0.2,0.5,0.5v7.7h1.5c0.3,0,0.5,0.2,0.5,0.5S22.1,21.5,21.8,21.5z"/>
</g>
<g>
	<path fill="#282829" d="M9.5,16.4c-0.8,0-1.5-0.7-1.5-1.5s0.7-1.5,1.5-1.5s1.5,0.7,1.5,1.5S10.4,16.4,9.5,16.4z M9.5,14.4
		c-0.3,0-0.5,0.2-0.5,0.5s0.2,0.5,0.5,0.5s0.5-0.2,0.5-0.5S9.8,14.4,9.5,14.4z"/>
</g>
<g>
	<path fill="#282829" d="M9.5,13c-0.2,0-0.4-0.2-0.4-0.4V9.3c0-0.2,0.2-0.4,0.4-0.4s0.4,0.2,0.4,0.4v3.3C9.9,12.8,9.7,13,9.5,13z"/>
</g>
<g>
	<path fill="#282829" d="M9.5,21c-0.2,0-0.4-0.2-0.4-0.4v-3.3c0-0.2,0.2-0.4,0.4-0.4s0.4,0.2,0.4,0.4v3.3C9.9,20.8,9.7,21,9.5,21z"
		/>
</g>
<g>
	<path fill="#282829" d="M13.5,19.4c-0.1,0-0.2,0-0.3-0.1l-2.3-2.3c-0.1-0.1-0.1-0.4,0-0.5s0.4-0.1,0.5,0l2.3,2.3
		c0.1,0.1,0.1,0.4,0,0.5C13.7,19.3,13.6,19.4,13.5,19.4z"/>
</g>
<g>
	<path fill="#282829" d="M7.9,13.7c-0.1,0-0.2,0-0.3-0.1l-2.3-2.3c-0.1-0.1-0.1-0.4,0-0.5s0.4-0.1,0.5,0L8.1,13
		c0.1,0.1,0.1,0.4,0,0.5C8.1,13.7,8,13.7,7.9,13.7z"/>
</g>
<g>
	<path fill="#282829" d="M15.2,15.3h-3.3c-0.2,0-0.4-0.2-0.4-0.4s0.2-0.4,0.4-0.4h3.3c0.2,0,0.4,0.2,0.4,0.4S15.4,15.3,15.2,15.3z"
		/>
</g>
<g>
	<path fill="#282829" d="M7.2,15.3H3.9c-0.2,0-0.4-0.2-0.4-0.4s0.2-0.4,0.4-0.4h3.3c0.2,0,0.4,0.2,0.4,0.4S7.4,15.3,7.2,15.3z"/>
</g>
<g>
	<path fill="#282829" d="M11.2,13.7c-0.1,0-0.2,0-0.3-0.1c-0.1-0.1-0.1-0.4,0-0.5l2.3-2.3c0.1-0.1,0.4-0.1,0.5,0s0.1,0.4,0,0.5
		l-2.3,2.3C11.4,13.7,11.3,13.7,11.2,13.7z"/>
</g>
<g>
	<path fill="#282829" d="M5.5,19.4c-0.1,0-0.2,0-0.3-0.1c-0.1-0.1-0.1-0.4,0-0.5l2.3-2.3c0.1-0.1,0.4-0.1,0.5,0s0.1,0.4,0,0.5
		l-2.3,2.3C5.7,19.3,5.6,19.4,5.5,19.4z"/>
</g>
<path fill="#FFFFFF" d="M-263.6-210.9v414.5h629v-414.5H-263.6z M338.9,163.3c0,7.2-5.8,13-13,13h-563l0-360h576V163.3z"/>
</svg>
