<?xml version="1.0" encoding="utf-8"?>
<!-- Generator: Adobe Illustrator 18.1.1, SVG Export Plug-In . SVG Version: 6.00 Build 0)  -->
<!DOCTYPE svg PUBLIC "-//W3C//DTD SVG 1.1//EN" "http://www.w3.org/Graphics/SVG/1.1/DTD/svg11.dtd">
<svg version="1.1" id="Layer_1" xmlns="http://www.w3.org/2000/svg" xmlns:xlink="http://www.w3.org/1999/xlink" x="0px" y="0px"
	 width="24px" height="24px" viewBox="0 0 24 24" enable-background="new 0 0 24 24" xml:space="preserve">
<g>
	<path fill="none" d="M6.1,5.8l0,2c1.1-0.5,2.2-0.8,3.5-0.8c1.7,0,3.3,0.5,4.5,1.4V5.8H6.1z"/>
	<circle fill="none" cx="9.5" cy="14.9" r="0.5"/>
	<path fill="none" d="M9.5,7.9c-3.8,0-6.9,3.1-6.9,6.9s3.1,6.9,6.9,6.9s6.9-3.1,6.9-6.9S13.4,7.9,9.5,7.9z M10.9,13l2.3-2.3
		c0.1-0.1,0.4-0.1,0.5,0s0.1,0.4,0,0.5l-2.3,2.3c-0.1,0.1-0.2,0.1-0.3,0.1s-0.2,0-0.3-0.1C10.8,13.4,10.8,13.2,10.9,13z M9.2,9.3
		c0-0.2,0.2-0.4,0.4-0.4s0.4,0.2,0.4,0.4v3.3c0,0.2-0.2,0.4-0.4,0.4s-0.4-0.2-0.4-0.4V9.3z M5.3,10.7c0.1-0.1,0.4-0.1,0.5,0L8.1,13
		c0.1,0.1,0.1,0.4,0,0.5c-0.1,0.1-0.2,0.1-0.3,0.1s-0.2,0-0.3-0.1l-2.3-2.3C5.1,11.1,5.1,10.9,5.3,10.7z M3.9,15.3
		c-0.2,0-0.4-0.2-0.4-0.4s0.2-0.4,0.4-0.4h3.3c0.2,0,0.4,0.2,0.4,0.4s-0.2,0.4-0.4,0.4H3.9z M8.1,16.9l-2.3,2.3
		c-0.1,0.1-0.2,0.1-0.3,0.1s-0.2,0-0.3-0.1c-0.1-0.1-0.1-0.4,0-0.5l2.3-2.3c0.1-0.1,0.4-0.1,0.5,0S8.3,16.8,8.1,16.9z M9.9,20.6
		c0,0.2-0.2,0.4-0.4,0.4s-0.4-0.2-0.4-0.4v-3.3c0-0.2,0.2-0.4,0.4-0.4s0.4,0.2,0.4,0.4V20.6z M9.5,16.4c-0.8,0-1.5-0.7-1.5-1.5
		s0.7-1.5,1.5-1.5s1.5,0.7,1.5,1.5S10.4,16.4,9.5,16.4z M13.8,19.2c-0.1,0.1-0.2,0.1-0.3,0.1s-0.2,0-0.3-0.1l-2.3-2.3
		c-0.1-0.1-0.1-0.4,0-0.5s0.4-0.1,0.5,0l2.3,2.3C13.9,18.9,13.9,19.1,13.8,19.2z M15.6,15c0,0.2-0.2,0.4-0.4,0.4h-3.3
		c-0.2,0-0.4-0.2-0.4-0.4s0.2-0.4,0.4-0.4h3.3C15.4,14.6,15.6,14.8,15.6,15z"/>
	<g>
		<path fill="#0D0D0D" d="M21.8,20.5h-1.5v-7.7c0-0.3-0.2-0.5-0.5-0.5H17c-0.4-1.2-1.1-2.3-2-3.1c0,0,0,0,0,0V5.3
			c0-0.3-0.2-0.5-0.5-0.5H6.1l0-3.1c0-0.1-0.1-0.3-0.1-0.4S5.7,1.2,5.6,1.2H4c-0.3,0-0.5,0.2-0.5,0.5S3.7,2.2,4,2.2h1.1l0,6
			c0,0.1,0,0.1,0,0.2C3,9.7,1.6,12.2,1.6,14.9c0,4.4,3.6,7.9,7.9,7.9s7.9-3.6,7.9-7.9c0-0.5-0.1-1.1-0.2-1.6h2V21
			c0,0.3,0.2,0.5,0.5,0.5h2c0.3,0,0.5-0.2,0.5-0.5S22.1,20.5,21.8,20.5z M6.1,5.8h8v2.6c-1.3-0.9-2.9-1.4-4.5-1.4
			c-1.2,0-2.4,0.3-3.5,0.8L6.1,5.8z M9.5,21.8c-3.8,0-6.9-3.1-6.9-6.9s3.1-6.9,6.9-6.9s6.9,3.1,6.9,6.9S13.4,21.8,9.5,21.8z"/>
		<path fill="#0D0D0D" d="M9.5,13.4c-0.8,0-1.5,0.7-1.5,1.5s0.7,1.5,1.5,1.5s1.5-0.7,1.5-1.5S10.4,13.4,9.5,13.4z M9.5,15.4
			c-0.3,0-0.5-0.2-0.5-0.5s0.2-0.5,0.5-0.5s0.5,0.2,0.5,0.5S9.8,15.4,9.5,15.4z"/>
		<path fill="#0D0D0D" d="M9.5,13c0.2,0,0.4-0.2,0.4-0.4V9.3c0-0.2-0.2-0.4-0.4-0.4S9.2,9.1,9.2,9.3v3.3C9.2,12.8,9.3,13,9.5,13z"/>
		<path fill="#0D0D0D" d="M9.5,16.9c-0.2,0-0.4,0.2-0.4,0.4v3.3c0,0.2,0.2,0.4,0.4,0.4s0.4-0.2,0.4-0.4v-3.3
			C9.9,17.1,9.7,16.9,9.5,16.9z"/>
		<path fill="#0D0D0D" d="M11.5,16.4c-0.1-0.1-0.4-0.1-0.5,0s-0.1,0.4,0,0.5l2.3,2.3c0.1,0.1,0.2,0.1,0.3,0.1s0.2,0,0.3-0.1
			c0.1-0.1,0.1-0.4,0-0.5L11.5,16.4z"/>
		<path fill="#0D0D0D" d="M7.6,13.6c0.1,0.1,0.2,0.1,0.3,0.1s0.2,0,0.3-0.1c0.1-0.1,0.1-0.4,0-0.5l-2.3-2.3c-0.1-0.1-0.4-0.1-0.5,0
			s-0.1,0.4,0,0.5L7.6,13.6z"/>
		<path fill="#0D0D0D" d="M11.5,15c0,0.2,0.2,0.4,0.4,0.4h3.3c0.2,0,0.4-0.2,0.4-0.4s-0.2-0.4-0.4-0.4h-3.3
			C11.7,14.6,11.5,14.8,11.5,15z"/>
		<path fill="#0D0D0D" d="M7.6,15c0-0.2-0.2-0.4-0.4-0.4H3.9c-0.2,0-0.4,0.2-0.4,0.4s0.2,0.4,0.4,0.4h3.3C7.4,15.3,7.6,15.2,7.6,15z
			"/>
		<path fill="#0D0D0D" d="M11.2,13.7c0.1,0,0.2,0,0.3-0.1l2.3-2.3c0.1-0.1,0.1-0.4,0-0.5s-0.4-0.1-0.5,0L10.9,13
			c-0.1,0.1-0.1,0.4,0,0.5C11,13.7,11.1,13.7,11.2,13.7z"/>
		<path fill="#0D0D0D" d="M7.6,16.4l-2.3,2.3c-0.1,0.1-0.1,0.4,0,0.5c0.1,0.1,0.2,0.1,0.3,0.1s0.2,0,0.3-0.1l2.3-2.3
			c0.1-0.1,0.1-0.4,0-0.5S7.8,16.2,7.6,16.4z"/>
	</g>
</g>
<path fill="#FFFFFF" d="M-263.6-210.9v414.5h629v-414.5H-263.6z M338.9,163.3c0,7.2-5.8,13-13,13h-563l0-360h576V163.3z"/>
</svg>
