<?xml version="1.0" encoding="utf-8"?>
<!-- Generator: Adobe Illustrator 18.1.0, SVG Export Plug-In . SVG Version: 6.00 Build 0)  -->
<!DOCTYPE svg PUBLIC "-//W3C//DTD SVG 1.1//EN" "http://www.w3.org/Graphics/SVG/1.1/DTD/svg11.dtd">
<svg version="1.1" id="Layer_1" xmlns="http://www.w3.org/2000/svg" xmlns:xlink="http://www.w3.org/1999/xlink" x="0px" y="0px"
	 width="24px" height="24px" viewBox="0 0 24 24" enable-background="new 0 0 24 24" xml:space="preserve">
<path fill="#FFFFFF" d="M-297.5-210.9v414.5h629v-414.5H-297.5z M305,163.3c0,7.2-5.8,13-13,13h-563l0-360h576V163.3z"/>
<g>
	<g>
		<polyline fill="#FFFFFF" points="13.9,11.9 13.9,13.3 10.2,13.3 10.2,9.9 12.8,9.9 		"/>
		<path fill="#282829" d="M13.9,13.6L13.9,13.6l-3.7,0c-0.1,0-0.2,0-0.2-0.1c-0.1-0.1-0.1-0.1-0.1-0.2l0-3.4c0-0.2,0.1-0.3,0.3-0.3
			l0,0l2.7,0c0.2,0,0.3,0.1,0.3,0.3c0,0.2-0.1,0.3-0.3,0.3l0,0l-2.3,0l0,2.7l3.1,0v-1.1c0-0.2,0.1-0.3,0.3-0.3l0,0
			c0.2,0,0.3,0.1,0.3,0.3l0,1.4c0,0.1,0,0.2-0.1,0.2C14,13.6,13.9,13.6,13.9,13.6z"/>
	</g>
	<g>
		<path fill="#282829" d="M15.5,9.1L15.5,9.1l-0.3-0.2c0,0-0.1-0.1-0.1-0.1c-0.1,0-0.1,0-0.1,0.1L14.7,9l-0.9,0.9c0,0,0,0,0,0
			l-1.6,1.6l-0.8-0.8c0,0-0.1-0.1-0.1-0.1c-0.1,0-0.1,0-0.1,0.1L10.9,11c0,0-0.1,0.1-0.1,0.1c0,0.1,0,0.1,0.1,0.1l1,1l0.2,0.2
			c0,0,0.1,0.1,0.1,0.1c0.1,0,0.1,0,0.1-0.1l0.2-0.2l0.9-0.9c0,0,0,0,0,0l2-2c0,0,0.1-0.1,0.1-0.1C15.5,9.1,15.5,9.1,15.5,9.1z"/>
	</g>
	<g>
		<rect x="10.1" y="15" fill="#FFFFFF" width="3.8" height="3.5"/>
		<path fill="#282829" d="M13.9,18.9L13.9,18.9l-3.8,0c-0.1,0-0.2,0-0.2-0.1c-0.1-0.1-0.1-0.1-0.1-0.2l0-3.5c0-0.2,0.1-0.3,0.3-0.3
			l0,0l3.8,0c0.1,0,0.2,0,0.2,0.1c0.1,0.1,0.1,0.1,0.1,0.2l0,3.5C14.2,18.7,14.1,18.9,13.9,18.9z M10.4,18.2l3.2,0l0-2.9l-3.2,0
			L10.4,18.2z"/>
	</g>
	<g>
		<path fill="#282829" d="M12,4.5L12,4.5c-0.8,0-1.5-0.7-1.5-1.5c0-0.8,0.7-1.5,1.5-1.5c0.4,0,0.8,0.2,1.1,0.4s0.4,0.7,0.4,1.1
			C13.5,3.9,12.8,4.5,12,4.5z M12,2.6c-0.3,0-0.5,0.2-0.5,0.5c0,0.3,0.2,0.5,0.5,0.5c0.3,0,0.5-0.2,0.5-0.5c0-0.1-0.1-0.3-0.1-0.3
			C12.3,2.6,12.1,2.6,12,2.6z"/>
	</g>
	<g>
		<g>
			<path fill="#282829" d="M17.1,22.4L17.1,22.4l-10.3,0c-0.8,0-1.5-0.7-1.5-1.5l0-14.7c0-0.8,0.7-1.5,1.5-1.5l10.3,0
				c0.8,0,1.5,0.7,1.5,1.5l0,14.7C18.6,21.8,17.9,22.4,17.1,22.4z M6.9,5.7c-0.1,0-0.3,0.1-0.4,0.1C6.4,5.9,6.4,6,6.4,6.2l0,14.7
				c0,0.3,0.2,0.5,0.5,0.5l10.2,0v0.5l0-0.5c0.3,0,0.5-0.2,0.5-0.5l0-14.7c0-0.3-0.2-0.5-0.5-0.5L6.9,5.7z"/>
		</g>
		<g>
			<rect x="7.3" y="4.2" fill="#FFFFFF" width="9.3" height="2"/>
			<path fill="#282829" d="M16.7,6.7L16.7,6.7l-9.3,0c-0.3,0-0.5-0.2-0.5-0.5l0-2C6.8,4,6.9,3.9,7,3.8s0.2-0.1,0.4-0.1l0,0l9.3,0
				c0.1,0,0.3,0.1,0.4,0.1s0.1,0.2,0.1,0.4l0,2C17.2,6.5,16.9,6.7,16.7,6.7z M7.8,5.7l8.3,0l0-1l-8.3,0L7.8,5.7z"/>
		</g>
	</g>
</g>
</svg>
