<?xml version="1.0" encoding="utf-8"?>
<!-- Generator: Adobe Illustrator 18.1.1, SVG Export Plug-In . SVG Version: 6.00 Build 0)  -->
<!DOCTYPE svg PUBLIC "-//W3C//DTD SVG 1.1//EN" "http://www.w3.org/Graphics/SVG/1.1/DTD/svg11.dtd">
<svg version="1.1" id="Layer_1" xmlns="http://www.w3.org/2000/svg" xmlns:xlink="http://www.w3.org/1999/xlink" x="0px" y="0px"
	 width="24px" height="24px" viewBox="0 0 24 24" enable-background="new 0 0 24 24" xml:space="preserve">
<path fill="#FFFFFF" d="M-297.5-210.9v414.5h629v-414.5H-297.5z M305,163.3c0,7.2-5.8,13-13,13h-563l0-360h576V163.3z"/>
<g>
	<path d="M10.2,13.6l3.7,0c0.1,0,0.2,0,0.2-0.1c0.1-0.1,0.1-0.1,0.1-0.2l0-1.4c0-0.2-0.1-0.3-0.3-0.3c-0.1,0-0.1,0-0.1,0.1
		c-0.1,0.1-0.2,0.1-0.2,0.3V13l-3.1,0l0-2.7l2.3,0c0.1,0,0.1,0,0.1-0.1c0.1-0.1,0.2-0.1,0.2-0.3c0-0.2-0.1-0.3-0.3-0.3l-2.7,0
		c-0.2,0-0.3,0.1-0.3,0.3l0,3.4c0,0.1,0,0.2,0.1,0.2C10,13.6,10.1,13.6,10.2,13.6z"/>
	<path d="M15.4,9l-0.2-0.2c0,0-0.1-0.1-0.1-0.1c-0.1,0-0.1,0-0.1,0.1L14.7,9l-0.9,0.9c0,0,0,0,0,0l-0.6,0.6l-1,1l-0.8-0.8
		c0,0-0.1-0.1-0.1-0.1c-0.1,0-0.1,0-0.1,0.1L10.9,11c0,0-0.1,0.1-0.1,0.1c0,0.1,0,0.1,0.1,0.1l1,1l0.2,0.2c0,0,0.1,0.1,0.1,0.1
		c0.1,0,0.1,0,0.1-0.1l0.2-0.2l0.9-0.9c0,0,0,0,0,0l0,0l2-1.9c0,0,0.1-0.1,0.1-0.1C15.5,9.1,15.5,9.1,15.4,9L15.4,9z"/>
	<path d="M13.9,14.7l-3.8,0c-0.2,0-0.3,0.1-0.3,0.3l0,3.5c0,0.1,0,0.2,0.1,0.2c0.1,0.1,0.1,0.1,0.2,0.1l3.8,0c0.2,0,0.3-0.1,0.3-0.3
		l0-3.5c0-0.1,0-0.2-0.1-0.2C14.1,14.8,14,14.7,13.9,14.7z M13.6,18.2l-3.2,0l0-2.9l3.2,0L13.6,18.2z"/>
	<path d="M17.2,4.7l0-0.5c0-0.1-0.1-0.3-0.1-0.4s-0.2-0.1-0.4-0.1l-3.3,0c0.1-0.2,0.1-0.4,0.1-0.6c0-0.4-0.2-0.8-0.4-1.1
		S12.4,1.6,12,1.6c-0.8,0-1.5,0.7-1.5,1.5c0,0.2,0.1,0.4,0.1,0.6l-3.3,0C7.2,3.7,7.1,3.7,7,3.8S6.8,4,6.8,4.2l0,0.5
		C6,4.7,5.4,5.4,5.4,6.2l0,14.7c0,0.8,0.7,1.5,1.5,1.5l10.3,0c0.8,0,1.5-0.7,1.5-1.5l0-14.7C18.6,5.4,18,4.7,17.2,4.7z M12,2.6
		c0.1,0,0.3,0.1,0.3,0.1c0.1,0.1,0.1,0.2,0.1,0.3c0,0.3-0.2,0.5-0.5,0.5c-0.3,0-0.5-0.2-0.5-0.5C11.5,2.8,11.7,2.6,12,2.6z M7.8,4.7
		L7.8,4.7l8.3,0v0l0,1l-8.3,0L7.8,4.7z M17.6,20.9c0,0.3-0.2,0.5-0.5,0.5l0,0.5v-0.5l-10.2,0c-0.3,0-0.5-0.2-0.5-0.5l0-14.7
		c0-0.1,0.1-0.3,0.1-0.4c0.1-0.1,0.2-0.1,0.3-0.1l0,0.5c0,0.3,0.2,0.5,0.5,0.5l9.3,0c0.3,0,0.5-0.2,0.5-0.5l0-0.5
		c0.3,0,0.5,0.2,0.5,0.5L17.6,20.9z"/>
</g>
</svg>
